<svg width="78" viewBox="0 0 438 445" fill="none" xmlns="http://www.w3.org/2000/svg">
<path d="M65.7729 429.464L65.9805 320.308M14.9999 374.789L116.754 374.983M239.543 15L204.063 113.367C198.294 129.363 195.409 137.362 190.934 144.085C186.968 150.045 182.099 155.248 176.528 159.48C170.244 164.255 162.777 167.32 147.843 173.447L56.0127 211.133L147.699 249.167C162.609 255.352 170.064 258.444 176.331 263.244C181.885 267.496 186.735 272.718 190.678 278.692C195.128 285.434 197.982 293.443 203.691 309.46L238.796 407.962L274.275 309.594C280.044 293.599 282.929 285.601 287.405 278.876C291.37 272.917 296.24 267.713 301.81 263.482C308.095 258.707 315.562 255.642 330.494 249.514L422.326 211.829L330.638 173.795C315.729 167.611 308.274 164.518 302.007 159.719C296.453 155.466 291.603 150.243 287.661 144.269C283.211 137.528 280.356 129.519 274.648 113.501L239.543 15Z" stroke="white" stroke-width="30" stroke-linecap="round" stroke-linejoin="round"/>
<rect x="357.359" y="61.8461" width="9.4094" height="68.5906" rx="4.7047" fill="white" stroke="white" stroke-width="9.4094"/>
<rect width="17.137" height="85.6554" rx="8.5685" transform="matrix(0.0208563 -0.999783 0.99985 0.017295 318.911 103.82)" fill="white"/>
</svg>
